<mxfile host="app.diagrams.net" agent="Mozilla/5.0 (X11; CrOS x86_64 14541.0.0) AppleWebKit/537.36 (KHTML, like Gecko) Chrome/140.0.0.0 Safari/537.36" version="28.2.5">
  <diagram name="PÃ¡gina-1" id="L_BSh97Rvrajgwu3YOM5">
    <mxGraphModel dx="1730" dy="892" grid="1" gridSize="10" guides="1" tooltips="1" connect="1" arrows="1" fold="1" page="1" pageScale="1" pageWidth="2336" pageHeight="1654" background="light-dark(#ffffff, #af8383)" math="0" shadow="0">
      <root>
        <mxCell id="0" />
        <mxCell id="1" parent="0" />
        <mxCell id="KrXGOnQtJ1yFIMdC9X8o-1" value="CLIENTE" style="whiteSpace=wrap;html=1;align=center;fillColor=#fff2cc;strokeColor=#d6b656;" parent="1" vertex="1">
          <mxGeometry x="1832" y="476" width="100" height="40" as="geometry" />
        </mxCell>
        <mxCell id="KrXGOnQtJ1yFIMdC9X8o-2" value="POLIZA" style="whiteSpace=wrap;html=1;align=center;fillColor=#fff2cc;strokeColor=#d6b656;" parent="1" vertex="1">
          <mxGeometry x="1282" y="481" width="100" height="40" as="geometry" />
        </mxCell>
        <mxCell id="KrXGOnQtJ1yFIMdC9X8o-3" value="SUCURSAL" style="whiteSpace=wrap;html=1;align=center;fillColor=#fff2cc;strokeColor=#d6b656;" parent="1" vertex="1">
          <mxGeometry x="1412" y="866" width="100" height="40" as="geometry" />
        </mxCell>
        <mxCell id="KrXGOnQtJ1yFIMdC9X8o-4" value="PERSONAL" style="whiteSpace=wrap;html=1;align=center;fillColor=#fff2cc;strokeColor=#d6b656;" parent="1" vertex="1">
          <mxGeometry x="812" y="481" width="100" height="40" as="geometry" />
        </mxCell>
        <mxCell id="KrXGOnQtJ1yFIMdC9X8o-5" value="&lt;div&gt;JEFESUC&lt;/div&gt;" style="whiteSpace=wrap;html=1;align=center;fillColor=#fff2cc;strokeColor=#d6b656;" parent="1" vertex="1">
          <mxGeometry x="742" y="866" width="100" height="40" as="geometry" />
        </mxCell>
        <mxCell id="KrXGOnQtJ1yFIMdC9X8o-6" value="VENDEDOR" style="whiteSpace=wrap;html=1;align=center;fillColor=#fff2cc;strokeColor=#d6b656;" parent="1" vertex="1">
          <mxGeometry x="1032" y="706" width="100" height="40" as="geometry" />
        </mxCell>
        <mxCell id="KrXGOnQtJ1yFIMdC9X8o-8" value="SUCPROV" style="whiteSpace=wrap;html=1;align=center;fillColor=#fff2cc;strokeColor=#d6b656;" parent="1" vertex="1">
          <mxGeometry x="552" y="646" width="100" height="40" as="geometry" />
        </mxCell>
        <mxCell id="KrXGOnQtJ1yFIMdC9X8o-9" value="SUCDTE" style="whiteSpace=wrap;html=1;align=center;fillColor=#fff2cc;strokeColor=#d6b656;" parent="1" vertex="1">
          <mxGeometry x="552" y="1126" width="100" height="40" as="geometry" />
        </mxCell>
        <mxCell id="KrXGOnQtJ1yFIMdC9X8o-10" value="Contrata" style="shape=rhombus;perimeter=rhombusPerimeter;whiteSpace=wrap;html=1;align=center;fillColor=#dae8fc;strokeColor=#6c8ebf;" parent="1" vertex="1">
          <mxGeometry x="1572" y="476" width="100" height="50" as="geometry" />
        </mxCell>
        <mxCell id="KrXGOnQtJ1yFIMdC9X8o-11" value="Vende" style="shape=rhombus;perimeter=rhombusPerimeter;whiteSpace=wrap;html=1;align=center;fillColor=#dae8fc;strokeColor=#6c8ebf;" parent="1" vertex="1">
          <mxGeometry x="1042" y="476" width="100" height="50" as="geometry" />
        </mxCell>
        <mxCell id="KrXGOnQtJ1yFIMdC9X8o-12" value="Depende" style="shape=rhombus;perimeter=rhombusPerimeter;whiteSpace=wrap;html=1;align=center;fillColor=#dae8fc;strokeColor=#6c8ebf;" parent="1" vertex="1">
          <mxGeometry x="552" y="876" width="100" height="50" as="geometry" />
        </mxCell>
        <mxCell id="KrXGOnQtJ1yFIMdC9X8o-13" value="Emplea" style="shape=rhombus;perimeter=rhombusPerimeter;whiteSpace=wrap;html=1;align=center;fillColor=#dae8fc;strokeColor=#6c8ebf;" parent="1" vertex="1">
          <mxGeometry x="1072" y="861" width="100" height="50" as="geometry" />
        </mxCell>
        <mxCell id="KrXGOnQtJ1yFIMdC9X8o-14" value="Emplea" style="shape=rhombus;perimeter=rhombusPerimeter;whiteSpace=wrap;html=1;align=center;fillColor=#dae8fc;strokeColor=#6c8ebf;" parent="1" vertex="1">
          <mxGeometry x="1239" y="746" width="100" height="50" as="geometry" />
        </mxCell>
        <mxCell id="KrXGOnQtJ1yFIMdC9X8o-15" value="Dirige" style="shape=rhombus;perimeter=rhombusPerimeter;whiteSpace=wrap;html=1;align=center;fillColor=#dae8fc;strokeColor=#6c8ebf;" parent="1" vertex="1">
          <mxGeometry x="742" y="726" width="100" height="50" as="geometry" />
        </mxCell>
        <mxCell id="KrXGOnQtJ1yFIMdC9X8o-16" value="Dirige" style="shape=rhombus;perimeter=rhombusPerimeter;whiteSpace=wrap;html=1;align=center;fillColor=#dae8fc;strokeColor=#6c8ebf;" parent="1" vertex="1">
          <mxGeometry x="742" y="1006" width="100" height="50" as="geometry" />
        </mxCell>
        <mxCell id="KrXGOnQtJ1yFIMdC9X8o-17" value="Asocia" style="shape=rhombus;perimeter=rhombusPerimeter;whiteSpace=wrap;html=1;align=center;fillColor=#dae8fc;strokeColor=#6c8ebf;" parent="1" vertex="1">
          <mxGeometry x="1422" y="656" width="100" height="50" as="geometry" />
        </mxCell>
        <mxCell id="KrXGOnQtJ1yFIMdC9X8o-18" value="" style="endArrow=none;html=1;rounded=0;entryX=0;entryY=0.5;entryDx=0;entryDy=0;exitX=1;exitY=0.5;exitDx=0;exitDy=0;" parent="1" source="KrXGOnQtJ1yFIMdC9X8o-5" target="KrXGOnQtJ1yFIMdC9X8o-13" edge="1">
          <mxGeometry relative="1" as="geometry">
            <mxPoint x="892" y="891" as="sourcePoint" />
            <mxPoint x="1002" y="885.5" as="targetPoint" />
          </mxGeometry>
        </mxCell>
        <mxCell id="KrXGOnQtJ1yFIMdC9X8o-19" value="" style="endArrow=none;html=1;rounded=0;entryX=0;entryY=0.5;entryDx=0;entryDy=0;exitX=1;exitY=0.5;exitDx=0;exitDy=0;" parent="1" source="KrXGOnQtJ1yFIMdC9X8o-13" target="KrXGOnQtJ1yFIMdC9X8o-3" edge="1">
          <mxGeometry relative="1" as="geometry">
            <mxPoint x="1152" y="936" as="sourcePoint" />
            <mxPoint x="1382" y="941" as="targetPoint" />
          </mxGeometry>
        </mxCell>
        <mxCell id="KrXGOnQtJ1yFIMdC9X8o-20" value="" style="endArrow=none;html=1;rounded=0;entryX=0.5;entryY=0;entryDx=0;entryDy=0;exitX=0.5;exitY=1;exitDx=0;exitDy=0;" parent="1" source="KrXGOnQtJ1yFIMdC9X8o-8" target="KrXGOnQtJ1yFIMdC9X8o-12" edge="1">
          <mxGeometry relative="1" as="geometry">
            <mxPoint x="792" y="796" as="sourcePoint" />
            <mxPoint x="1022" y="801" as="targetPoint" />
          </mxGeometry>
        </mxCell>
        <mxCell id="KrXGOnQtJ1yFIMdC9X8o-21" value="" style="endArrow=none;html=1;rounded=0;exitX=0.5;exitY=1;exitDx=0;exitDy=0;" parent="1" source="KrXGOnQtJ1yFIMdC9X8o-12" target="KrXGOnQtJ1yFIMdC9X8o-9" edge="1">
          <mxGeometry relative="1" as="geometry">
            <mxPoint x="612" y="796" as="sourcePoint" />
            <mxPoint x="612" y="996" as="targetPoint" />
          </mxGeometry>
        </mxCell>
        <mxCell id="Dobw_pbnJO2B4XNPJlrt-1" value="" style="endArrow=none;html=1;rounded=0;entryX=0.5;entryY=0;entryDx=0;entryDy=0;entryPerimeter=0;exitX=1;exitY=0.5;exitDx=0;exitDy=0;exitPerimeter=0;" edge="1" parent="1" source="KrXGOnQtJ1yFIMdC9X8o-8" target="KrXGOnQtJ1yFIMdC9X8o-15">
          <mxGeometry relative="1" as="geometry">
            <mxPoint x="662" y="666" as="sourcePoint" />
            <mxPoint x="692" y="946" as="targetPoint" />
          </mxGeometry>
        </mxCell>
        <mxCell id="Dobw_pbnJO2B4XNPJlrt-2" value="" style="endArrow=none;html=1;rounded=0;entryX=0;entryY=0.5;entryDx=0;entryDy=0;exitX=1;exitY=0.375;exitDx=0;exitDy=0;exitPerimeter=0;" edge="1" parent="1" source="KrXGOnQtJ1yFIMdC9X8o-6" target="KrXGOnQtJ1yFIMdC9X8o-14">
          <mxGeometry relative="1" as="geometry">
            <mxPoint x="1132" y="736" as="sourcePoint" />
            <mxPoint x="1272" y="796" as="targetPoint" />
          </mxGeometry>
        </mxCell>
        <mxCell id="Dobw_pbnJO2B4XNPJlrt-3" value="" style="endArrow=none;html=1;rounded=0;entryX=0.5;entryY=0;entryDx=0;entryDy=0;" edge="1" parent="1" target="KrXGOnQtJ1yFIMdC9X8o-5">
          <mxGeometry relative="1" as="geometry">
            <mxPoint x="792" y="776" as="sourcePoint" />
            <mxPoint x="972" y="866" as="targetPoint" />
          </mxGeometry>
        </mxCell>
        <mxCell id="Dobw_pbnJO2B4XNPJlrt-6" value="" style="endArrow=none;html=1;rounded=0;entryX=0.5;entryY=0.1;entryDx=0;entryDy=0;entryPerimeter=0;exitX=0.5;exitY=0.875;exitDx=0;exitDy=0;exitPerimeter=0;" edge="1" parent="1" source="KrXGOnQtJ1yFIMdC9X8o-5" target="KrXGOnQtJ1yFIMdC9X8o-16">
          <mxGeometry relative="1" as="geometry">
            <mxPoint x="822" y="951" as="sourcePoint" />
            <mxPoint x="962" y="1011" as="targetPoint" />
          </mxGeometry>
        </mxCell>
        <mxCell id="Dobw_pbnJO2B4XNPJlrt-8" value="" style="endArrow=none;html=1;rounded=0;exitX=0.5;exitY=1;exitDx=0;exitDy=0;" edge="1" parent="1" source="KrXGOnQtJ1yFIMdC9X8o-16">
          <mxGeometry relative="1" as="geometry">
            <mxPoint x="842" y="1101" as="sourcePoint" />
            <mxPoint x="652" y="1146" as="targetPoint" />
          </mxGeometry>
        </mxCell>
        <mxCell id="Dobw_pbnJO2B4XNPJlrt-39" value="ES" style="shape=mxgraph.flowchart.merge_or_storage;strokeWidth=2;gradientColor=none;gradientDirection=north;fontStyle=0;html=1;" vertex="1" parent="1">
          <mxGeometry x="892" y="640.5" width="80" height="45.5" as="geometry" />
        </mxCell>
        <mxCell id="Dobw_pbnJO2B4XNPJlrt-63" value="" style="endArrow=none;html=1;rounded=0;entryX=0.5;entryY=0.011;entryDx=0;entryDy=0;entryPerimeter=0;exitX=0.5;exitY=0.875;exitDx=0;exitDy=0;exitPerimeter=0;" edge="1" parent="1" source="KrXGOnQtJ1yFIMdC9X8o-4" target="Dobw_pbnJO2B4XNPJlrt-39">
          <mxGeometry relative="1" as="geometry">
            <mxPoint x="872" y="551" as="sourcePoint" />
            <mxPoint x="772" y="921" as="targetPoint" />
          </mxGeometry>
        </mxCell>
        <mxCell id="Dobw_pbnJO2B4XNPJlrt-64" value="" style="endArrow=none;html=1;rounded=0;entryX=0.5;entryY=0;entryDx=0;entryDy=0;exitX=0.5;exitY=0.89;exitDx=0;exitDy=0;exitPerimeter=0;" edge="1" parent="1" source="Dobw_pbnJO2B4XNPJlrt-39">
          <mxGeometry relative="1" as="geometry">
            <mxPoint x="922" y="750.995" as="sourcePoint" />
            <mxPoint x="1032" y="731" as="targetPoint" />
          </mxGeometry>
        </mxCell>
        <mxCell id="Dobw_pbnJO2B4XNPJlrt-65" value="" style="endArrow=none;html=1;rounded=0;" edge="1" parent="1">
          <mxGeometry relative="1" as="geometry">
            <mxPoint x="932" y="691" as="sourcePoint" />
            <mxPoint x="802" y="861" as="targetPoint" />
          </mxGeometry>
        </mxCell>
        <mxCell id="Dobw_pbnJO2B4XNPJlrt-66" value="" style="endArrow=none;html=1;rounded=0;entryX=0.5;entryY=0.125;entryDx=0;entryDy=0;entryPerimeter=0;exitX=0.83;exitY=0.5;exitDx=0;exitDy=0;exitPerimeter=0;" edge="1" parent="1" source="KrXGOnQtJ1yFIMdC9X8o-14" target="KrXGOnQtJ1yFIMdC9X8o-3">
          <mxGeometry relative="1" as="geometry">
            <mxPoint x="1332" y="771" as="sourcePoint" />
            <mxPoint x="1289" y="801" as="targetPoint" />
          </mxGeometry>
        </mxCell>
        <mxCell id="Dobw_pbnJO2B4XNPJlrt-67" value="" style="endArrow=none;html=1;rounded=0;exitX=1;exitY=0.5;exitDx=0;exitDy=0;exitPerimeter=0;" edge="1" parent="1" source="KrXGOnQtJ1yFIMdC9X8o-11" target="KrXGOnQtJ1yFIMdC9X8o-2">
          <mxGeometry relative="1" as="geometry">
            <mxPoint x="1132" y="581" as="sourcePoint" />
            <mxPoint x="1239" y="631" as="targetPoint" />
          </mxGeometry>
        </mxCell>
        <mxCell id="Dobw_pbnJO2B4XNPJlrt-68" value="" style="endArrow=none;html=1;rounded=0;exitX=0.9;exitY=0.5;exitDx=0;exitDy=0;exitPerimeter=0;" edge="1" parent="1" source="KrXGOnQtJ1yFIMdC9X8o-4">
          <mxGeometry relative="1" as="geometry">
            <mxPoint x="922" y="501" as="sourcePoint" />
            <mxPoint x="1052" y="501" as="targetPoint" />
          </mxGeometry>
        </mxCell>
        <mxCell id="Dobw_pbnJO2B4XNPJlrt-69" value="" style="endArrow=none;html=1;rounded=0;exitX=0.9;exitY=0.4;exitDx=0;exitDy=0;exitPerimeter=0;entryX=0;entryY=0.625;entryDx=0;entryDy=0;entryPerimeter=0;" edge="1" parent="1" source="KrXGOnQtJ1yFIMdC9X8o-10" target="KrXGOnQtJ1yFIMdC9X8o-1">
          <mxGeometry relative="1" as="geometry">
            <mxPoint x="1682" y="511" as="sourcePoint" />
            <mxPoint x="1852" y="511" as="targetPoint" />
          </mxGeometry>
        </mxCell>
        <mxCell id="Dobw_pbnJO2B4XNPJlrt-70" value="" style="endArrow=none;html=1;rounded=0;entryX=0;entryY=0.5;entryDx=0;entryDy=0;exitX=1;exitY=0.5;exitDx=0;exitDy=0;exitPerimeter=0;" edge="1" parent="1" source="KrXGOnQtJ1yFIMdC9X8o-2" target="KrXGOnQtJ1yFIMdC9X8o-10">
          <mxGeometry relative="1" as="geometry">
            <mxPoint x="1472" y="531" as="sourcePoint" />
            <mxPoint x="1579" y="581" as="targetPoint" />
          </mxGeometry>
        </mxCell>
        <mxCell id="Dobw_pbnJO2B4XNPJlrt-71" value="" style="endArrow=none;html=1;rounded=0;exitX=0.5;exitY=1;exitDx=0;exitDy=0;exitPerimeter=0;entryX=0.5;entryY=0;entryDx=0;entryDy=0;" edge="1" parent="1" source="KrXGOnQtJ1yFIMdC9X8o-2" target="KrXGOnQtJ1yFIMdC9X8o-17">
          <mxGeometry relative="1" as="geometry">
            <mxPoint x="1392" y="631" as="sourcePoint" />
            <mxPoint x="1472" y="681" as="targetPoint" />
          </mxGeometry>
        </mxCell>
        <mxCell id="Dobw_pbnJO2B4XNPJlrt-72" value="" style="endArrow=none;html=1;rounded=0;" edge="1" parent="1" target="KrXGOnQtJ1yFIMdC9X8o-3">
          <mxGeometry relative="1" as="geometry">
            <mxPoint x="1472" y="711" as="sourcePoint" />
            <mxPoint x="1482" y="861" as="targetPoint" />
          </mxGeometry>
        </mxCell>
        <mxCell id="Dobw_pbnJO2B4XNPJlrt-73" value="NomApe" style="ellipse;whiteSpace=wrap;html=1;fillColor=#f0a30a;fontColor=#000000;strokeColor=#BD7000;" vertex="1" parent="1">
          <mxGeometry x="1832" y="233" width="70" height="30" as="geometry" />
        </mxCell>
        <mxCell id="Dobw_pbnJO2B4XNPJlrt-74" value="DNI" style="ellipse;whiteSpace=wrap;html=1;fillColor=#e51400;strokeColor=#B20000;fontColor=#ffffff;fontStyle=4" vertex="1" parent="1">
          <mxGeometry x="1832" y="200" width="70" height="30" as="geometry" />
        </mxCell>
        <mxCell id="Dobw_pbnJO2B4XNPJlrt-75" value="Direccion" style="ellipse;whiteSpace=wrap;html=1;fillColor=#f0a30a;fontColor=#000000;strokeColor=#BD7000;" vertex="1" parent="1">
          <mxGeometry x="1832" y="265" width="70" height="30" as="geometry" />
        </mxCell>
        <mxCell id="Dobw_pbnJO2B4XNPJlrt-76" value="TLFm" style="ellipse;whiteSpace=wrap;html=1;fillColor=#f0a30a;fontColor=#000000;strokeColor=#BD7000;" vertex="1" parent="1">
          <mxGeometry x="1832" y="296" width="70" height="30" as="geometry" />
        </mxCell>
        <mxCell id="Dobw_pbnJO2B4XNPJlrt-77" value="TLFc" style="ellipse;whiteSpace=wrap;html=1;fillColor=#f0a30a;fontColor=#000000;strokeColor=#BD7000;" vertex="1" parent="1">
          <mxGeometry x="1832" y="329" width="70" height="30" as="geometry" />
        </mxCell>
        <mxCell id="Dobw_pbnJO2B4XNPJlrt-78" value="TLFt" style="ellipse;whiteSpace=wrap;html=1;fillColor=#f0a30a;fontColor=#000000;strokeColor=#BD7000;" vertex="1" parent="1">
          <mxGeometry x="1832" y="362" width="70" height="30" as="geometry" />
        </mxCell>
        <mxCell id="Dobw_pbnJO2B4XNPJlrt-79" value="NumPol" style="ellipse;whiteSpace=wrap;html=1;fillColor=#e51400;strokeColor=#B20000;fontColor=#ffffff;fontStyle=4" vertex="1" parent="1">
          <mxGeometry x="1282" y="200" width="70" height="30" as="geometry" />
        </mxCell>
        <mxCell id="Dobw_pbnJO2B4XNPJlrt-80" value="Caracteristicas" style="ellipse;whiteSpace=wrap;html=1;fillColor=#f0a30a;fontColor=#000000;strokeColor=#BD7000;" vertex="1" parent="1">
          <mxGeometry x="1282" y="233" width="90" height="30" as="geometry" />
        </mxCell>
        <mxCell id="Dobw_pbnJO2B4XNPJlrt-81" value="Precio" style="ellipse;whiteSpace=wrap;html=1;fillColor=#f0a30a;fontColor=#000000;strokeColor=#BD7000;" vertex="1" parent="1">
          <mxGeometry x="1282" y="266" width="70" height="30" as="geometry" />
        </mxCell>
        <mxCell id="Dobw_pbnJO2B4XNPJlrt-82" value="FechaCont" style="ellipse;whiteSpace=wrap;html=1;fillColor=#f0a30a;fontColor=#000000;strokeColor=#BD7000;" vertex="1" parent="1">
          <mxGeometry x="1282" y="296" width="70" height="30" as="geometry" />
        </mxCell>
        <mxCell id="Dobw_pbnJO2B4XNPJlrt-83" value="TipoPol" style="ellipse;whiteSpace=wrap;html=1;fillColor=#f0a30a;fontColor=#000000;strokeColor=#BD7000;" vertex="1" parent="1">
          <mxGeometry x="1282" y="329" width="70" height="30" as="geometry" />
        </mxCell>
        <mxCell id="Dobw_pbnJO2B4XNPJlrt-84" value="TipoPago" style="ellipse;whiteSpace=wrap;html=1;fillColor=#f0a30a;fontColor=#000000;strokeColor=#BD7000;" vertex="1" parent="1">
          <mxGeometry x="1282" y="362" width="70" height="30" as="geometry" />
        </mxCell>
        <mxCell id="Dobw_pbnJO2B4XNPJlrt-85" value="FechaIni" style="ellipse;whiteSpace=wrap;html=1;fillColor=#f0a30a;fontColor=#000000;strokeColor=#BD7000;" vertex="1" parent="1">
          <mxGeometry x="1282" y="394" width="70" height="30" as="geometry" />
        </mxCell>
        <mxCell id="Dobw_pbnJO2B4XNPJlrt-86" value="FechaFin" style="ellipse;whiteSpace=wrap;html=1;fillColor=#f0a30a;fontColor=#000000;strokeColor=#BD7000;" vertex="1" parent="1">
          <mxGeometry x="1282" y="425" width="70" height="30" as="geometry" />
        </mxCell>
        <mxCell id="Dobw_pbnJO2B4XNPJlrt-87" value="Hogar" style="ellipse;whiteSpace=wrap;html=1;fillColor=#f0a30a;fontColor=#000000;strokeColor=#BD7000;" vertex="1" parent="1">
          <mxGeometry x="1400" y="294" width="50" height="20" as="geometry" />
        </mxCell>
        <mxCell id="Dobw_pbnJO2B4XNPJlrt-88" value="Coche" style="ellipse;whiteSpace=wrap;html=1;fillColor=#f0a30a;fontColor=#000000;strokeColor=#BD7000;" vertex="1" parent="1">
          <mxGeometry x="1400" y="316" width="50" height="20" as="geometry" />
        </mxCell>
        <mxCell id="Dobw_pbnJO2B4XNPJlrt-89" value="Hogar" style="ellipse;whiteSpace=wrap;html=1;fillColor=#f0a30a;fontColor=#000000;strokeColor=#BD7000;" vertex="1" parent="1">
          <mxGeometry x="1400" y="338" width="50" height="20" as="geometry" />
        </mxCell>
        <mxCell id="Dobw_pbnJO2B4XNPJlrt-90" value="COD" style="ellipse;whiteSpace=wrap;html=1;fillColor=#e51400;fontColor=#ffffff;strokeColor=#B20000;fontStyle=4" vertex="1" parent="1">
          <mxGeometry x="1452" y="950" width="60" height="30" as="geometry" />
        </mxCell>
        <mxCell id="Dobw_pbnJO2B4XNPJlrt-91" value="DNI" style="ellipse;whiteSpace=wrap;html=1;fillColor=#e51400;strokeColor=#B20000;fontColor=#ffffff;fontStyle=4" vertex="1" parent="1">
          <mxGeometry x="812" y="200" width="70" height="30" as="geometry" />
        </mxCell>
        <mxCell id="Dobw_pbnJO2B4XNPJlrt-92" value="NomApe" style="ellipse;whiteSpace=wrap;html=1;fillColor=#f0a30a;fontColor=#000000;strokeColor=#BD7000;" vertex="1" parent="1">
          <mxGeometry x="812" y="233" width="70" height="30" as="geometry" />
        </mxCell>
        <mxCell id="Dobw_pbnJO2B4XNPJlrt-93" value="Direccion" style="ellipse;whiteSpace=wrap;html=1;fillColor=#f0a30a;fontColor=#000000;strokeColor=#BD7000;" vertex="1" parent="1">
          <mxGeometry x="812" y="265" width="70" height="30" as="geometry" />
        </mxCell>
        <mxCell id="Dobw_pbnJO2B4XNPJlrt-94" value="TLFm" style="ellipse;whiteSpace=wrap;html=1;fillColor=#f0a30a;fontColor=#000000;strokeColor=#BD7000;" vertex="1" parent="1">
          <mxGeometry x="812" y="296" width="70" height="30" as="geometry" />
        </mxCell>
        <mxCell id="Dobw_pbnJO2B4XNPJlrt-95" value="TLFc" style="ellipse;whiteSpace=wrap;html=1;fillColor=#f0a30a;fontColor=#000000;strokeColor=#BD7000;" vertex="1" parent="1">
          <mxGeometry x="812" y="329" width="70" height="30" as="geometry" />
        </mxCell>
        <mxCell id="Dobw_pbnJO2B4XNPJlrt-96" value="NumCuenta" style="ellipse;whiteSpace=wrap;html=1;fillColor=#f0a30a;fontColor=#000000;strokeColor=#BD7000;" vertex="1" parent="1">
          <mxGeometry x="812" y="361" width="80" height="30" as="geometry" />
        </mxCell>
        <mxCell id="Dobw_pbnJO2B4XNPJlrt-97" value="Tipo" style="ellipse;whiteSpace=wrap;html=1;fillColor=#f0a30a;fontColor=#000000;strokeColor=#BD7000;" vertex="1" parent="1">
          <mxGeometry x="814" y="393" width="70" height="30" as="geometry" />
        </mxCell>
        <mxCell id="Dobw_pbnJO2B4XNPJlrt-98" value="Vendedor" style="ellipse;whiteSpace=wrap;html=1;fillColor=#f0a30a;fontColor=#000000;strokeColor=#BD7000;" vertex="1" parent="1">
          <mxGeometry x="902" y="372" width="60" height="20" as="geometry" />
        </mxCell>
        <mxCell id="Dobw_pbnJO2B4XNPJlrt-99" value="Jefe" style="ellipse;whiteSpace=wrap;html=1;fillColor=#f0a30a;fontColor=#000000;strokeColor=#BD7000;" vertex="1" parent="1">
          <mxGeometry x="902" y="399" width="60" height="20" as="geometry" />
        </mxCell>
        <mxCell id="Dobw_pbnJO2B4XNPJlrt-100" value="DNI" style="ellipse;whiteSpace=wrap;html=1;fillColor=#e51400;strokeColor=#B20000;fontColor=#ffffff;fontStyle=4" vertex="1" parent="1">
          <mxGeometry x="860" y="930" width="70" height="30" as="geometry" />
        </mxCell>
        <mxCell id="Dobw_pbnJO2B4XNPJlrt-101" value="DNI" style="ellipse;whiteSpace=wrap;html=1;fillColor=#e51400;strokeColor=#B20000;fontColor=#ffffff;fontStyle=4" vertex="1" parent="1">
          <mxGeometry x="1050" y="630" width="70" height="30" as="geometry" />
        </mxCell>
        <mxCell id="Dobw_pbnJO2B4XNPJlrt-102" value="COD" style="ellipse;whiteSpace=wrap;html=1;fillColor=#e51400;fontColor=#ffffff;strokeColor=#B20000;fontStyle=4" vertex="1" parent="1">
          <mxGeometry x="580" y="560" width="60" height="30" as="geometry" />
        </mxCell>
        <mxCell id="Dobw_pbnJO2B4XNPJlrt-103" value="COD" style="ellipse;whiteSpace=wrap;html=1;fillColor=#e51400;fontColor=#ffffff;strokeColor=#B20000;fontStyle=4" vertex="1" parent="1">
          <mxGeometry x="620" y="1190" width="60" height="30" as="geometry" />
        </mxCell>
      </root>
    </mxGraphModel>
  </diagram>
</mxfile>
